<svg width="24" height="24" viewBox="0 0 24 24" fill="none" xmlns="http://www.w3.org/2000/svg">
<g clip-path="url(#clip0_9298_705)">
<path d="M2.17329 17.701V5.45616L21.8267 6.29892V18.5438C21.8267 18.8244 21.6879 19.105 21.4102 19.2653L13.6247 23.7603C13.0709 24.08 12.3888 24.08 11.835 23.7603L2.58977 18.4226C2.31208 18.2622 2.17324 17.9816 2.17329 17.701Z" fill="url(#paint0_linear_9298_705)"/>
<path d="M21.4101 5.57752L12.1649 0.239765C11.6112 -0.0799223 10.929 -0.0799223 10.3753 0.239765L2.58982 4.73475C2.03449 5.05537 2.03449 5.85694 2.58982 6.17756L11.835 11.5153C12.3887 11.835 13.0709 11.835 13.6246 11.5153L21.4101 7.02033C21.9655 6.6997 21.9655 5.89814 21.4101 5.57752Z" fill="url(#paint1_linear_9298_705)"/>
<path d="M18.4124 3.84675L8.48254 9.57974L5.84849 8.05898L15.7784 2.32603L18.4124 3.84675Z" fill="#DEA861"/>
<path d="M16.8382 2.93705L6.90838 8.67005L7.42433 8.96794L17.3541 3.23494L16.8382 2.93705Z" fill="#CC8241"/>
<path d="M2.8311 9.33928L3.70443 8.02926L4.57776 10.3477L4.11791 10.0822V10.8675L3.29094 10.3901V9.60478L2.8311 9.33928Z" fill="#5D3645"/>
<path d="M2.8311 10.3218L4.57776 11.3302V11.755L2.8311 10.7466V10.3218Z" fill="#5D3645"/>
<path d="M8.48267 9.57975V11.755L5.84862 10.2343V8.05898L8.48267 9.57975Z" fill="#CC8241"/>
</g>
<defs>
<linearGradient id="paint0_linear_9298_705" x1="14.3006" y1="14.7281" x2="11.6009" y2="14.7281" gradientUnits="userSpaceOnUse">
<stop stop-color="#CC8241"/>
<stop offset="1" stop-color="#DEA861"/>
</linearGradient>
<linearGradient id="paint1_linear_9298_705" x1="17.4715" y1="2.71856" x2="7.36104" y2="8.55581" gradientUnits="userSpaceOnUse">
<stop stop-color="#DEA861"/>
<stop offset="1" stop-color="#EBCBA0"/>
</linearGradient>
<clipPath id="clip0_9298_705">
<rect width="24" height="24" fill="white" transform="matrix(-1 0 0 1 24 0)"/>
</clipPath>
</defs>
</svg>
